<svg width="143" height="47" viewBox="0 0 143 47" fill="none" xmlns="http://www.w3.org/2000/svg">
<path d="M61.252 24.3188C61.252 30.9312 56.0058 35.8037 49.5676 35.8037C43.1294 35.8037 37.8833 30.9312 37.8833 24.3188C37.8833 17.6599 43.1294 12.834 49.5676 12.834C56.0058 12.834 61.252 17.6599 61.252 24.3188ZM56.1371 24.3188C56.1371 20.1868 53.0966 17.3596 49.5676 17.3596C46.0387 17.3596 42.9982 20.1868 42.9982 24.3188C42.9982 28.4095 46.0387 31.2781 49.5676 31.2781C53.0966 31.2781 56.1371 28.4043 56.1371 24.3188Z" fill="#EA4335"/>
<path d="M86.4581 24.3188C86.4581 30.9312 81.2119 35.8037 74.7737 35.8037C68.3355 35.8037 63.0894 30.9312 63.0894 24.3188C63.0894 17.6651 68.3355 12.834 74.7737 12.834C81.2119 12.834 86.4581 17.6599 86.4581 24.3188ZM81.3432 24.3188C81.3432 20.1868 78.3027 17.3596 74.7737 17.3596C71.2448 17.3596 68.2042 20.1868 68.2042 24.3188C68.2042 28.4095 71.2448 31.2781 74.7737 31.2781C78.3027 31.2781 81.3432 28.4043 81.3432 24.3188Z" fill="#FBBC05"/>
<path d="M110.614 13.5278V34.1463C110.614 42.6278 105.541 46.0918 99.5442 46.0918C93.8989 46.0918 90.5012 42.3689 89.2199 39.3242L93.6731 37.4964C94.4661 39.3657 96.4091 41.5715 99.5389 41.5715C103.378 41.5715 105.757 39.2362 105.757 34.8402V33.1884H105.578C104.433 34.5813 102.228 35.7981 99.4444 35.7981C93.6206 35.7981 88.2852 30.7962 88.2852 24.36C88.2852 17.8773 93.6206 12.834 99.4444 12.834C102.222 12.834 104.428 14.0508 105.578 15.4022H105.757V13.533H110.614V13.5278ZM106.119 24.36C106.119 20.3161 103.383 17.3595 99.9013 17.3595C96.3723 17.3595 93.4158 20.3161 93.4158 24.36C93.4158 28.3626 96.3723 31.2778 99.9013 31.2778C103.383 31.2778 106.119 28.3626 106.119 24.36Z" fill="#4285F4"/>
<path d="M118.623 1.44336V35.1001H113.634V1.44336H118.623Z" fill="#34A853"/>
<path d="M138.064 28.0965L142.034 30.7061C140.753 32.5753 137.665 35.7959 132.33 35.7959C125.713 35.7959 120.771 30.7527 120.771 24.3115C120.771 17.482 125.755 12.8271 131.757 12.8271C137.802 12.8271 140.758 17.57 141.725 20.133L142.255 21.4378L126.685 27.7962C127.877 30.1003 129.73 31.2757 132.33 31.2757C134.935 31.2757 136.741 30.0123 138.064 28.0965ZM125.844 23.9646L136.253 19.7033C135.68 18.269 133.958 17.2697 131.931 17.2697C129.331 17.2697 125.713 19.5324 125.844 23.9646Z" fill="#EA4335"/>
<path d="M18.9989 21.3304V16.4581H35.6511C35.8139 17.3073 35.8979 18.3118 35.8979 19.3991C35.8979 23.0547 34.8844 27.5749 31.618 30.7956C28.4409 34.0576 24.3816 35.7974 19.0041 35.7974C9.03699 35.7974 0.655762 27.7924 0.655762 17.9648C0.655762 8.13728 9.03699 0.132324 19.0041 0.132324C24.5181 0.132324 28.4461 2.2656 31.3974 5.0461L27.9105 8.4842C25.7942 6.52697 22.9269 5.00468 18.9989 5.00468C11.7205 5.00468 6.02794 10.7883 6.02794 17.9648C6.02794 25.1413 11.7205 30.925 18.9989 30.925C23.7199 30.925 26.4086 29.0558 28.1311 27.3575C29.5279 25.9802 30.4469 24.0126 30.8093 21.3253L18.9989 21.3304Z" fill="#4285F4"/>
</svg>
