<svg width="143" height="46" viewBox="0 0 143 46" fill="none" xmlns="http://www.w3.org/2000/svg">
<path d="M41.1348 32.0058C40.9116 31.4582 40.7024 30.8825 40.4793 30.3911L39.4472 28.0463L39.4053 28.0042C36.337 21.2646 33.0595 14.4128 29.5867 7.67322L29.4473 7.3924C29.0986 6.73249 28.7499 6.00237 28.3873 5.32842C27.941 4.5281 27.5087 3.67161 26.7974 2.85725C26.104 2.00517 25.2314 1.31865 24.2426 0.847261C23.2537 0.375867 22.1733 0.131348 21.0791 0.131348C19.985 0.131348 18.9046 0.375867 17.9157 0.847261C16.9268 1.31865 16.0543 2.00517 15.3609 2.85725C14.7054 3.67161 14.2173 4.5281 13.771 5.32842C13.4223 6.05853 13.0736 6.77461 12.711 7.43452L12.5715 7.71534C9.15456 14.4549 5.82126 21.3067 2.75294 28.0463L2.66926 28.1305C2.36243 28.8607 1.99981 29.6188 1.65114 30.4332C1.42799 30.9246 1.20484 31.4582 0.98169 32.0479C0.37923 33.5921 0.186846 35.2676 0.423497 36.9095C0.660149 38.5513 1.31767 40.1027 2.33125 41.4108C3.34484 42.7189 4.6795 43.7386 6.20372 44.3692C7.72793 44.9999 9.38907 45.2199 11.0234 45.0075C12.5903 44.7998 14.0991 44.2744 15.4586 43.463C17.2716 42.438 19.015 40.9497 20.9676 38.8015C22.9201 40.9497 24.7053 42.438 26.4766 43.477C28.1799 44.4835 30.1089 45.0391 32.0832 45.0917C34.3696 45.1013 36.5822 44.2778 38.3126 42.7732C40.0429 41.2686 41.1741 39.1846 41.4974 36.906C41.8709 35.2685 41.7445 33.5557 41.1348 31.9917V32.0058ZM21.107 34.3365C18.7082 31.2476 17.1461 28.4113 16.6161 25.9823C16.3966 25.0822 16.3492 24.1482 16.4767 23.2303C16.5743 22.5142 16.8393 21.8824 17.2019 21.3489C18.0387 20.1273 19.5031 19.3691 21.107 19.3691C21.8687 19.3457 22.6243 19.513 23.3059 19.8561C23.9875 20.1992 24.5738 20.7073 25.0122 21.3348C25.3748 21.8965 25.6398 22.5142 25.7235 23.2303C25.8629 24.0447 25.8071 24.9854 25.584 25.9823C25.054 28.3692 23.492 31.2335 21.107 34.3365ZM38.8754 36.4146C38.7169 37.5714 38.2601 38.6663 37.5505 39.5901C36.8408 40.5139 35.9031 41.2344 34.8308 41.6798C33.7708 42.1291 32.5993 42.2555 31.4556 42.1291C30.3399 41.9887 29.2241 41.6237 28.0805 40.9497C26.1816 39.7682 24.4742 38.3002 23.0178 36.5971C25.9466 32.9465 27.7179 29.6189 28.3873 26.6563C28.7081 25.2522 28.7499 23.9885 28.6105 22.8231C28.4363 21.7185 28.0272 20.6649 27.411 19.7342C26.7075 18.725 25.7686 17.9053 24.6766 17.3471C23.5847 16.7889 22.3733 16.5093 21.1489 16.5329C18.5687 16.5329 16.2675 17.7404 14.8728 19.7201C14.2449 20.6485 13.8392 21.7105 13.6873 22.8231C13.506 24.0026 13.5478 25.3084 13.9104 26.6563C14.5799 29.6189 16.393 32.9886 19.28 36.6252C17.8483 38.3608 16.1369 39.8417 14.2173 41.0059C13.0597 41.6798 11.9579 42.0308 10.8421 42.1712C9.10698 42.395 7.35423 41.9202 5.96486 40.8502C4.57548 39.7801 3.6618 38.2012 3.42239 36.4567C3.28293 35.3334 3.38055 34.2102 3.82685 32.9465C3.96632 32.4972 4.17553 32.0479 4.39868 31.5143C4.70551 30.7842 5.06813 30.026 5.4168 29.2678L5.47259 29.1695C8.48511 22.4721 11.7766 15.6343 15.1936 8.93688L15.333 8.65607C15.6817 7.98211 16.0304 7.26604 16.393 6.59208C16.7556 5.87601 17.1461 5.18801 17.6482 4.62638C18.0828 4.1041 18.6259 3.68407 19.2391 3.39588C19.8524 3.10768 20.5209 2.95833 21.1977 2.95833C21.8745 2.95833 22.543 3.10768 23.1563 3.39588C23.7695 3.68407 24.3126 4.1041 24.7472 4.62638C25.2353 5.18801 25.6398 5.87601 26.0024 6.59208C26.3511 7.26604 26.6997 7.99615 27.0624 8.65607L27.2018 8.93688C30.6049 15.6343 33.8963 22.4721 36.9646 29.1695L37.0065 29.2117C37.3691 29.9418 37.6759 30.7561 38.0246 31.4582C38.2478 32.0058 38.4709 32.441 38.6104 32.9044C38.8754 34.168 39.0148 35.2913 38.8754 36.4146ZM58.2894 34.0276C57.2385 34.0431 56.1975 33.8202 55.2439 33.3754C54.2902 32.9306 53.4482 32.2753 52.7804 31.4582C51.2798 29.7171 50.4834 27.4721 50.5489 25.1679C50.5259 22.8136 51.3481 20.5301 52.8641 18.7373C53.5653 17.9098 54.4383 17.2471 55.4214 16.7959C56.4045 16.3446 57.474 16.1159 58.5544 16.1257C59.571 16.0977 60.578 16.3304 61.4808 16.802C62.3835 17.2736 63.1522 17.9686 63.7148 18.8215L63.8542 16.6172H67.9267V33.5783H63.8403L63.7008 31.1072C63.1208 32.0179 62.3193 32.7643 61.3722 33.2755C60.425 33.7866 59.3639 34.0455 58.2894 34.0276ZM59.3494 29.9839C60.1583 29.9839 60.8696 29.7593 61.539 29.3521C62.1527 28.9028 62.6548 28.3131 63.0453 27.597C63.394 26.8809 63.5753 26.0244 63.5753 25.0697C63.6297 24.2404 63.4693 23.4111 63.1099 22.663C62.7506 21.9148 62.2045 21.2733 61.5251 20.8013C60.8723 20.3918 60.1185 20.1748 59.3494 20.1748C58.5802 20.1748 57.8265 20.3918 57.1737 20.8013C56.56 21.2506 56.0579 21.8403 55.6674 22.5564C55.2986 23.3461 55.1171 24.2113 55.1374 25.0837C55.083 25.9129 55.2434 26.7422 55.6027 27.4904C55.9621 28.2386 56.5082 28.88 57.1876 29.3521C57.8431 29.7593 58.5544 29.9839 59.3494 29.9839ZM74.9001 12.0399C74.9001 12.5313 74.8165 12.9806 74.5933 13.3457C74.3702 13.6967 74.0633 14.0196 73.6589 14.2443C73.2544 14.4689 72.8221 14.5532 72.3758 14.5532C71.9295 14.5532 71.4832 14.4689 71.0787 14.2443C70.6962 14.0299 70.3745 13.7205 70.1443 13.3457C69.9283 12.9457 69.8223 12.4949 69.8374 12.0399C69.8374 11.5344 69.9351 11.0851 70.1443 10.7341C70.3674 10.3129 70.6882 10.0601 71.0787 9.83549C71.4832 9.61084 71.9155 9.51255 72.3758 9.51255C72.8197 9.50225 73.2587 9.6081 73.6498 9.81975C74.041 10.0314 74.3709 10.3416 74.6073 10.7201C74.8102 11.1294 74.9108 11.5825 74.9001 12.0399ZM70.1582 33.5222V16.5891H74.5933V33.5503H70.1443L70.1582 33.5222ZM86.4482 21.0259V21.0821C86.239 20.9838 85.96 20.9417 85.7508 20.8996C85.4719 20.8434 85.2487 20.8434 84.9837 20.8434C83.7425 20.8434 82.808 21.2085 82.1944 21.9667C81.5249 22.7389 81.2181 23.82 81.2181 25.2101V33.5362H76.769V16.575H80.8555L80.9949 19.1445C81.4412 18.2459 81.9712 17.5719 82.7243 17.0665C83.4735 16.5753 84.3554 16.3301 85.2487 16.3644C85.5695 16.3644 85.8763 16.3925 86.1413 16.4487C86.2808 16.4908 86.3645 16.4908 86.4482 16.5329V21.0259ZM88.2334 33.5222V9.62488H92.6685V18.7513C93.2961 17.937 94.0074 17.3051 94.9 16.8137C96.3131 16.1162 97.9184 15.9184 99.4569 16.2521C100.995 16.5858 102.377 17.4316 103.38 18.6531C104.884 20.3978 105.68 22.6483 105.611 24.9573C105.634 27.3117 104.812 29.5952 103.296 31.388C102.595 32.2155 101.722 32.8782 100.739 33.3294C99.7555 33.7806 98.6861 34.0094 97.6057 33.9996C96.589 34.0276 95.582 33.7948 94.6793 33.3233C93.7766 32.8517 93.0079 32.1567 92.4453 31.3037L92.3059 33.5081L88.2334 33.5503V33.5222ZM96.8107 29.9839C97.6057 29.9839 98.317 29.7593 98.9864 29.3521C99.6001 28.9028 100.102 28.3131 100.493 27.597C100.855 26.8809 101.023 26.0244 101.023 25.0697C101.023 24.1289 100.855 23.2724 100.493 22.5564C100.126 21.8659 99.6118 21.2663 98.9864 20.8013C98.3336 20.3918 97.5799 20.1748 96.8107 20.1748C96.0415 20.1748 95.2878 20.3918 94.635 20.8013C94.0074 21.2506 93.5192 21.8403 93.1148 22.5564C92.746 23.3461 92.5645 24.2113 92.5848 25.0837C92.5304 25.9129 92.6908 26.7422 93.0501 27.4904C93.4095 28.2386 93.9556 28.88 94.635 29.3521C95.2905 29.7593 96.0018 29.9839 96.8107 29.9839ZM107.285 33.5362V16.575H111.371L111.511 18.7794C112.024 17.9344 112.753 17.2429 113.621 16.7764C114.489 16.3098 115.465 16.0852 116.448 16.1257C117.572 16.1062 118.677 16.4207 119.625 17.0301C120.572 17.6394 121.321 18.5165 121.776 19.5517C122.264 20.6188 122.529 21.9386 122.529 23.4129V33.5783H118.08V24.0026C118.08 22.8231 117.815 21.8965 117.285 21.2085C116.755 20.5345 116.029 20.1695 115.109 20.1695C114.44 20.1695 113.854 20.3099 113.338 20.6188C112.85 20.9417 112.445 21.3489 112.138 21.9245C111.828 22.5064 111.674 23.1599 111.692 23.82V33.5362H107.285ZM124.746 33.5362V9.61084H129.195V18.7373C129.798 17.9184 130.582 17.2522 131.485 16.7915C132.388 16.3309 133.385 16.0885 134.398 16.0836C135.448 16.0681 136.489 16.2911 137.443 16.7359C138.397 17.1807 139.239 17.8359 139.907 18.6531C141.4 20.3976 142.191 22.6414 142.124 24.9433C142.148 27.2978 141.326 29.5818 139.809 31.3739C139.108 32.2015 138.235 32.8642 137.252 33.3154C136.268 33.7666 135.199 33.9953 134.119 33.9855C133.102 34.0135 132.095 33.7808 131.192 33.3092C130.29 32.8376 129.521 32.1427 128.958 31.2897L128.833 33.4941L124.746 33.5362ZM133.365 29.9839C134.174 29.9839 134.886 29.7593 135.541 29.3521C136.169 28.9028 136.657 28.3131 137.061 27.597C137.41 26.8809 137.591 26.0244 137.591 25.0697C137.646 24.2404 137.485 23.4111 137.126 22.663C136.767 21.9148 136.221 21.2733 135.541 20.8013C134.888 20.3918 134.135 20.1748 133.365 20.1748C132.596 20.1748 131.843 20.3918 131.19 20.8013C130.576 21.2506 130.074 21.8403 129.684 22.5564C129.294 23.339 129.112 24.2094 129.154 25.0837C129.099 25.9129 129.259 26.7422 129.619 27.4904C129.978 28.2386 130.524 28.88 131.204 29.3521C131.859 29.7593 132.529 29.9839 133.365 29.9839Z" fill="#FF385C"/>
</svg>
