<svg width="162" height="47" viewBox="0 0 162 47" fill="none" xmlns="http://www.w3.org/2000/svg">
<path d="M18.3996 7.73975V20.699H6.5977V7.73975H0.994629V38.6748H6.5977V26.1363H18.3996V38.6748H24.0026V7.73975H18.3996Z" fill="#33475B"/>
<path d="M41.9342 28.6754C41.9342 29.9152 41.4458 31.1042 40.5765 31.9809C39.7072 32.8575 38.5282 33.35 37.2988 33.35C36.0694 33.35 34.8904 32.8575 34.0211 31.9809C33.1518 31.1042 32.6635 29.9152 32.6635 28.6754V15.4253H27.3486V28.6754C27.3486 31.3341 28.3959 33.884 30.2602 35.764C32.1244 37.644 34.6528 38.7002 37.2892 38.7002C39.9256 38.7002 42.454 37.644 44.3183 35.764C46.1825 33.884 47.2298 31.3341 47.2298 28.6754V15.4253H41.9342V28.6754Z" fill="#33475B"/>
<path d="M81.313 16.7905C81.313 14.0746 83.0947 13.2136 85.0465 13.2136C86.6196 13.2136 88.6977 14.4207 90.0566 15.8852L93.5376 11.749C91.7998 9.3792 88.2749 7.74023 85.3897 7.74023C79.6247 7.74023 75.4546 11.1455 75.4546 16.7905C75.4546 27.2638 88.1487 23.9416 88.1487 29.8025C88.1487 31.6104 86.4082 33.2078 84.4151 33.2078C81.2718 33.2078 80.2533 31.6574 78.8093 30.0185L74.9468 34.0688C77.4175 37.128 80.4647 38.6812 84.1159 38.6812C89.5927 38.6812 93.9988 35.2344 93.9988 29.8468C93.9988 18.2191 81.3048 21.832 81.3048 16.7905" fill="#33475B"/>
<path d="M159.843 33.734C156.703 33.734 155.81 32.3636 155.81 30.265V20.9767H160.691V16.2703H155.81V10.0605L150.421 12.4996V31.4195C150.421 36.2588 153.732 38.6979 158.273 38.6979C158.985 38.711 159.697 38.6535 160.398 38.5262L161.713 33.6454C161.12 33.6869 160.439 33.7284 159.843 33.7284" fill="#33475B"/>
<path d="M62.1642 15.5807C59.5315 15.5807 57.6949 16.3503 55.9187 18.1083V7.92578H50.5957V26.7986C50.5957 33.8638 55.6607 38.7031 61.3516 38.7031C67.6657 38.7031 73.2193 33.778 73.2193 27.1447C73.2193 20.5944 68.1076 15.5834 62.1642 15.5834V15.5807ZM62.1312 33.3018C60.9367 33.3018 59.769 32.9446 58.7758 32.2753C57.7826 31.6061 57.0085 30.6548 56.5514 29.5419C56.0943 28.429 55.9747 27.2044 56.2077 26.0229C56.4408 24.8414 57.016 23.7561 57.8606 22.9043C58.7053 22.0525 59.7814 21.4725 60.953 21.2375C62.1245 21.0024 63.3389 21.1231 64.4425 21.584C65.5461 22.045 66.4893 22.8257 67.1529 23.8273C67.8166 24.8289 68.1708 26.0065 68.1708 27.2111C68.1708 28.8265 67.5345 30.3756 66.4018 31.5179C65.2692 32.6601 63.733 33.3018 62.1312 33.3018Z" fill="#33475B"/>
<path d="M119.963 26.863C119.963 20.2187 114.42 15.3047 108.095 15.3047C102.404 15.3047 97.3394 20.144 97.3394 27.2091V46.0928H102.662V35.8965C104.436 37.6517 106.275 38.4241 108.905 38.4241C114.849 38.4241 119.96 33.416 119.96 26.863H119.963ZM114.923 26.7966C114.923 28.0012 114.568 29.1788 113.905 30.1803C113.241 31.1819 112.298 31.9626 111.194 32.4236C110.091 32.8846 108.876 33.0052 107.705 32.7702C106.533 32.5352 105.457 31.9551 104.613 31.1033C103.768 30.2515 103.193 29.1663 102.96 27.9848C102.727 26.8033 102.846 25.5787 103.303 24.4658C103.76 23.3529 104.535 22.4017 105.528 21.7324C106.521 21.0632 107.689 20.706 108.883 20.706C110.485 20.706 112.021 21.3476 113.154 22.4899C114.286 23.6321 114.923 25.1812 114.923 26.7966Z" fill="#33475B"/>
<path d="M137.159 15.0433V9.65032C137.866 9.31731 138.464 8.78872 138.885 8.12607C139.305 7.46343 139.53 6.694 139.534 5.90735V5.78277C139.534 4.6814 139.1 3.62515 138.328 2.84636C137.556 2.06758 136.508 1.63006 135.416 1.63006H135.293C134.2 1.63006 133.153 2.06758 132.381 2.84636C131.609 3.62515 131.175 4.6814 131.175 5.78277V5.90735C131.178 6.694 131.403 7.46343 131.824 8.12607C132.244 8.78872 132.843 9.31731 133.549 9.65032V15.0433C131.518 15.3567 129.605 16.2057 128.004 17.5045L113.339 5.98487C113.443 5.60499 113.498 5.21333 113.504 4.81934C113.505 3.89386 113.235 2.98869 112.726 2.21831C112.217 1.44792 111.494 0.846948 110.647 0.491391C109.799 0.135835 108.866 0.0416723 107.966 0.220814C107.066 0.399956 106.238 0.844354 105.588 1.4978C104.938 2.15124 104.495 2.98437 104.315 3.89182C104.135 4.79926 104.225 5.74024 104.575 6.59574C104.925 7.45125 105.519 8.18284 106.282 8.69797C107.044 9.21311 107.941 9.48865 108.859 9.48975C109.661 9.48613 110.449 9.2704 111.143 8.86407L125.585 20.1954C124.288 22.172 123.611 24.4971 123.642 26.8675C123.674 29.2379 124.413 31.5436 125.764 33.4841L121.371 37.9136C121.016 37.7992 120.646 37.7386 120.273 37.7337C119.52 37.7342 118.784 37.96 118.157 38.3824C117.531 38.8049 117.043 39.405 116.755 40.1071C116.467 40.8091 116.392 41.5815 116.539 42.3266C116.686 43.0718 117.049 43.7562 117.582 44.2935C118.114 44.8307 118.793 45.1966 119.532 45.345C120.271 45.4933 121.037 45.4175 121.733 45.127C122.429 44.8365 123.024 44.3444 123.443 43.7129C123.862 43.0814 124.086 42.3388 124.086 41.5791C124.082 41.2031 124.022 40.8299 123.908 40.4717L128.254 36.0892C129.671 37.1889 131.319 37.9469 133.071 38.3052C134.823 38.6636 136.634 38.6127 138.364 38.1564C140.094 37.7002 141.697 36.8508 143.051 35.6732C144.405 34.4956 145.474 33.0211 146.176 31.3626C146.878 29.7041 147.194 27.9057 147.1 26.105C147.006 24.3043 146.505 22.5492 145.635 20.974C144.764 19.3988 143.548 18.0454 142.079 17.0174C140.61 15.9894 138.927 15.3142 137.159 15.0433ZM135.358 32.7781C134.17 32.777 133.008 32.4206 132.02 31.7538C131.032 31.0871 130.262 30.14 129.808 29.0322C129.354 27.9244 129.236 26.7056 129.468 25.53C129.7 24.3543 130.273 23.2745 131.114 22.427C131.955 21.5796 133.026 21.0025 134.191 20.7687C135.357 20.5348 136.566 20.6548 137.664 21.1135C138.762 21.5721 139.701 22.3488 140.362 23.3453C141.023 24.3419 141.376 25.5136 141.376 26.7124C141.376 28.3204 140.743 29.8625 139.615 30.9995C138.488 32.1366 136.958 32.7753 135.364 32.7753" fill="#FF7A59"/>
</svg>
