<svg width="211" height="45" viewBox="0 0 211 45" fill="none" xmlns="http://www.w3.org/2000/svg">
<path d="M74.6728 25.8897L73.4227 29.4258H73.3185C73.1101 28.6284 72.7282 27.415 72.1031 25.959L65.401 9.14502H58.8379V35.9434H63.1786V19.4067C63.1786 18.3667 63.1786 17.188 63.1439 15.7319C63.1091 15.0039 63.0397 14.4492 63.005 14.0332H63.1091C63.3175 15.0732 63.5606 15.8359 63.7342 16.3213L71.7906 35.874H74.8464L82.8333 16.1479C83.007 15.6973 83.1806 14.7959 83.3542 14.0332H83.4584C83.3542 16.0093 83.2848 17.7773 83.25 18.8521V35.8394H87.8686V9.07568H81.5485L74.6728 25.8897ZM92.244 16.6333H96.7583V35.8394H92.244V16.6333ZM94.5359 8.521C93.7719 8.521 93.1469 8.79834 92.626 9.28369C92.1051 9.76904 91.8273 10.3931 91.8273 11.1558C91.8273 11.8838 92.1051 12.5078 92.626 12.9932C93.1469 13.4785 93.7719 13.7212 94.5359 13.7212C95.2999 13.7212 95.9596 13.4438 96.4458 12.9932C96.9667 12.5078 97.2445 11.8838 97.2445 11.1558C97.2445 10.4277 96.9667 9.80371 96.4458 9.28369C95.9944 8.79834 95.3346 8.521 94.5359 8.521ZM112.767 16.46C111.933 16.2866 111.065 16.1826 110.232 16.1826C108.183 16.1826 106.308 16.6333 104.745 17.5347C103.183 18.436 101.932 19.6841 101.134 21.2441C100.3 22.8389 99.8836 24.6763 99.8836 26.791C99.8836 28.6284 100.3 30.2578 101.099 31.7485C101.898 33.2046 103.009 34.3833 104.502 35.1807C105.926 35.978 107.593 36.394 109.468 36.394C111.621 36.394 113.461 35.9434 114.92 35.1113L114.955 35.0767V30.9165L114.781 31.0552C114.121 31.5405 113.357 31.9565 112.593 32.1992C111.795 32.4766 111.065 32.6152 110.44 32.6152C108.635 32.6152 107.211 32.0952 106.204 30.9512C105.162 29.8418 104.641 28.3164 104.641 26.4097C104.641 24.4336 105.162 22.8735 106.238 21.7295C107.315 20.5854 108.739 19.9961 110.475 19.9961C111.933 19.9961 113.427 20.4814 114.781 21.4521L114.955 21.5908V17.188L114.92 17.1533C114.33 16.9106 113.67 16.6333 112.767 16.46ZM127.664 16.3213C126.553 16.3213 125.511 16.668 124.608 17.396C123.844 18.02 123.323 18.9214 122.872 19.9961H122.837V16.6333H118.323V35.8394H122.837V26.0283C122.837 24.3643 123.185 22.9775 123.949 21.9722C124.713 20.9321 125.685 20.4121 126.866 20.4121C127.282 20.4121 127.699 20.5161 128.22 20.5855C128.706 20.7241 129.053 20.8628 129.296 21.0361L129.47 21.1748V16.668L129.366 16.6333C129.053 16.4253 128.428 16.3213 127.664 16.3213ZM139.957 16.2173C136.797 16.2173 134.262 17.1533 132.491 18.9907C130.685 20.8281 129.817 23.3589 129.817 26.5483C129.817 29.5298 130.72 31.9565 132.456 33.7246C134.193 35.458 136.554 36.3594 139.506 36.3594C142.596 36.3594 145.062 35.4233 146.833 33.5513C148.639 31.6792 149.507 29.1831 149.507 26.0977C149.507 23.0469 148.673 20.6201 146.972 18.8521C145.34 17.084 142.944 16.2173 139.957 16.2173ZM143.569 30.9858C142.735 32.0605 141.416 32.5806 139.783 32.5806C138.151 32.5806 136.832 32.0605 135.894 30.9165C134.957 29.8418 134.505 28.2817 134.505 26.3057C134.505 24.2603 134.991 22.7002 135.894 21.5908C136.832 20.4814 138.117 19.9268 139.749 19.9268C141.346 19.9268 142.596 20.4468 143.499 21.5215C144.402 22.5962 144.888 24.1562 144.888 26.2017C144.819 28.2817 144.437 29.9111 143.569 30.9858ZM159.577 24.6069C158.153 24.0176 157.25 23.5669 156.834 23.1855C156.487 22.8389 156.313 22.3535 156.313 21.7295C156.313 21.2095 156.521 20.6895 157.042 20.3428C157.563 19.9961 158.153 19.8228 159.021 19.8228C159.785 19.8228 160.584 19.9614 161.348 20.1694C162.112 20.3774 162.807 20.6895 163.362 21.1055L163.536 21.2441V17.0146L163.432 16.98C162.911 16.772 162.216 16.564 161.383 16.3906C160.549 16.252 159.785 16.1826 159.16 16.1826C157.007 16.1826 155.236 16.7026 153.847 17.8467C152.458 18.9214 151.799 20.3774 151.799 22.0762C151.799 22.9775 151.937 23.7749 152.25 24.4336C152.563 25.0923 153.014 25.7163 153.639 26.2363C154.264 26.7217 155.167 27.2764 156.417 27.7964C157.459 28.2471 158.258 28.5938 158.744 28.8711C159.23 29.1484 159.542 29.4605 159.785 29.7031C159.959 29.9805 160.063 30.3272 160.063 30.7778C160.063 32.0605 159.091 32.6846 157.112 32.6846C156.348 32.6846 155.549 32.5459 154.611 32.2339C153.674 31.9219 152.806 31.4712 152.076 30.9512L151.903 30.8125V35.2153L152.007 35.25C152.667 35.562 153.465 35.77 154.438 36.0127C155.41 36.186 156.278 36.3247 157.042 36.3247C159.369 36.3247 161.279 35.8047 162.633 34.6606C164.022 33.5513 164.751 32.1299 164.751 30.2925C164.751 29.0098 164.404 27.8657 163.64 26.999C162.633 26.167 161.383 25.3003 159.577 24.6069ZM176.662 16.2173C173.502 16.2173 170.967 17.1533 169.196 18.9907C167.425 20.8281 166.522 23.3589 166.522 26.5483C166.522 29.5298 167.425 31.9565 169.161 33.7246C170.898 35.458 173.259 36.3594 176.211 36.3594C179.301 36.3594 181.767 35.4233 183.538 33.5513C185.344 31.6792 186.212 29.1831 186.212 26.0977C186.212 23.0469 185.378 20.6201 183.677 18.8521C182.045 17.084 179.649 16.2173 176.662 16.2173ZM180.239 30.9858C179.405 32.0605 178.086 32.5806 176.454 32.5806C174.787 32.5806 173.502 32.0605 172.565 30.9165C171.627 29.8418 171.175 28.2817 171.175 26.3057C171.175 24.2603 171.662 22.7002 172.565 21.5908C173.502 20.4814 174.787 19.9268 176.419 19.9268C177.982 19.9268 179.267 20.4468 180.169 21.5215C181.072 22.5962 181.558 24.1562 181.558 26.2017C181.558 28.2817 181.107 29.9111 180.239 30.9858ZM210.346 20.3428V16.6333H205.797V10.9478L205.658 10.9824L201.352 12.2651L201.248 12.2998V16.6333H194.442V14.2065C194.442 13.0972 194.719 12.2305 195.206 11.6758C195.692 11.1211 196.421 10.8437 197.324 10.8437C197.949 10.8437 198.609 10.9824 199.338 11.2944L199.512 11.3984V7.48096L199.407 7.44629C198.782 7.23828 197.949 7.09961 196.872 7.09961C195.518 7.09961 194.338 7.41162 193.261 7.93164C192.185 8.521 191.386 9.31836 190.795 10.3931C190.205 11.4331 189.893 12.6118 189.893 13.9639V16.6333H186.733V20.3081H189.893V35.8394H194.442V20.3428H201.248V30.2231C201.248 34.2793 203.158 36.3247 206.978 36.3247C207.603 36.3247 208.263 36.2207 208.888 36.1167C209.547 35.978 210.034 35.8047 210.311 35.666L210.346 35.6313V31.9219L210.172 32.0605C209.895 32.2339 209.652 32.3726 209.235 32.4766C208.888 32.5806 208.575 32.6152 208.332 32.6152C207.429 32.6152 206.804 32.4072 206.353 31.8872C205.936 31.4019 205.728 30.6045 205.728 29.4258V20.3428H210.346Z" fill="#737373"/>
<path d="M0.637695 0.131348H21.9245V21.3828H0.637695V0.131348Z" fill="#F25022"/>
<path d="M24.1465 0.131348H45.4333V21.3828H24.1465V0.131348Z" fill="#7FBA00"/>
<path d="M0.637695 23.6016H21.9245V44.8535H0.637695V23.6016Z" fill="#00A4EF"/>
<path d="M24.1465 23.6016H45.4333V44.8535H24.1465V23.6016Z" fill="#FFB900"/>
</svg>
