<svg width="48" height="48" viewBox="0 0 48 48" fill="none" xmlns="http://www.w3.org/2000/svg">
<path d="M26.0003 26.0002V37.1702L29.6563 33.5142L32.4863 36.3442L24.0003 44.8282L15.5143 36.3442L18.3443 33.5142L22.0003 37.1702V26.0002H26.0003ZM24.0003 4.00018C27.4342 4.00035 30.7484 5.26241 33.3127 7.54642C35.8769 9.83043 37.5125 12.9771 37.9083 16.3882C40.3968 17.0668 42.5677 18.5984 44.0416 20.7152C45.5155 22.8321 46.1986 25.3996 45.9715 27.969C45.7445 30.5384 44.6217 32.9463 42.7994 34.7718C40.9771 36.5974 38.5713 37.7245 36.0023 37.9562L36.0003 34.0002C36.0034 30.8545 34.7713 27.8333 32.569 25.5871C30.3667 23.3409 27.3705 22.0492 24.2253 21.9902C21.0802 21.9312 18.0376 23.1096 15.7526 25.2717C13.4677 27.4337 12.1231 30.4066 12.0083 33.5502L12.0003 34.0002V37.9562C9.43118 37.7248 7.02509 36.598 5.20254 34.7726C3.38 32.9472 2.25693 30.5393 2.02962 27.9698C1.80232 25.4004 2.48524 22.8328 3.95901 20.7157C5.43279 18.5987 7.60369 17.067 10.0923 16.3882C10.4877 12.9769 12.1231 9.83001 14.6874 7.54591C17.2518 5.26182 20.5662 3.99991 24.0003 4.00018V4.00018Z" fill="url(#paint0_linear_92_1064)"/>
<defs>
<linearGradient id="paint0_linear_92_1064" x1="24.0005" y1="4.00018" x2="24.0005" y2="44.8282" gradientUnits="userSpaceOnUse">
<stop stop-color="#F56565"/>
<stop offset="1" stop-color="#D53F8C"/>
</linearGradient>
</defs>
</svg>
