<svg width="32" height="32" viewBox="0 0 32 32" fill="none" xmlns="http://www.w3.org/2000/svg">
<path d="M12 20L20 12" stroke="white" stroke-width="1.5" stroke-linecap="round" stroke-linejoin="round"/>
<circle cx="12.6667" cy="12.6667" r="0.666667" stroke="white" stroke-width="1.5" stroke-linecap="round" stroke-linejoin="round"/>
<circle cx="19.3332" cy="19.3333" r="0.666667" stroke="white" stroke-width="1.5" stroke-linecap="round" stroke-linejoin="round"/>
<path d="M6.66679 9.6C6.66679 7.97996 7.98009 6.66666 9.60013 6.66666H10.9335C11.708 6.66622 12.4509 6.35947 13.0001 5.81333L13.9335 4.88C14.484 4.32632 15.2326 4.01501 16.0135 4.01501C16.7943 4.01501 17.5429 4.32632 18.0935 4.88L19.0268 5.81333C19.576 6.35947 20.3189 6.66622 21.0935 6.66666H22.4268C24.0468 6.66666 25.3601 7.97996 25.3601 9.6V10.9333C25.3606 11.7079 25.6673 12.4508 26.2135 13L27.1468 13.9333C27.7005 14.4839 28.0118 15.2325 28.0118 16.0133C28.0118 16.7942 27.7005 17.5428 27.1468 18.0933L26.2135 19.0267C25.6673 19.5759 25.3606 20.3188 25.3601 21.0933V22.4267C25.3601 24.0467 24.0468 25.36 22.4268 25.36H21.0935C20.3189 25.3604 19.576 25.6672 19.0268 26.2133L18.0935 27.1467C17.5429 27.7003 16.7943 28.0117 16.0135 28.0117C15.2326 28.0117 14.484 27.7003 13.9335 27.1467L13.0001 26.2133C12.4509 25.6672 11.708 25.3604 10.9335 25.36H9.60013C7.98009 25.36 6.66679 24.0467 6.66679 22.4267V21.0933C6.66635 20.3188 6.3596 19.5759 5.81346 19.0267L4.88013 18.0933C4.32645 17.5428 4.01514 16.7942 4.01514 16.0133C4.01514 15.2325 4.32645 14.4839 4.88013 13.9333L5.81346 13C6.3596 12.4508 6.66635 11.7079 6.66679 10.9333V9.6" stroke="white" stroke-width="1.5" stroke-linecap="round" stroke-linejoin="round"/>
</svg>
