<svg width="15" height="10" viewBox="0 0 15 10" fill="none" xmlns="http://www.w3.org/2000/svg">
<path id="Path" d="M12.2859 5.65919H1.34716C0.959646 5.65919 0.645508 5.37937 0.645508 5.03419C0.645508 4.68902 0.959646 4.4092 1.34716 4.4092H12.2859L8.56712 1.0967C8.3682 0.942673 8.28297 0.702339 8.34646 0.474475C8.40995 0.246611 8.61144 0.0696602 8.86812 0.0163472C9.1248 -0.0369657 9.39338 0.0423536 9.56346 0.221705L14.475 4.5967C14.7424 4.83972 14.7424 5.22867 14.475 5.47169L9.56346 9.84668C9.28678 10.0609 8.87158 10.0493 8.61052 9.82006C8.34946 9.5908 8.33055 9.22115 8.56712 8.97169L12.2859 5.65919Z" fill="white"/>
</svg>
